<?xml version="1.0" encoding="UTF-8" standalone="no" ?>
<!DOCTYPE svg PUBLIC "-//W3C//DTD SVG 1.1//EN" "http://www.w3.org/Graphics/SVG/1.1/DTD/svg11.dtd">
<svg xmlns="http://www.w3.org/2000/svg" xmlns:xlink="http://www.w3.org/1999/xlink" version="1.1" width="640" height="640" viewBox="0 0 640 640" xml:space="preserve">
<desc>Created with Fabric.js 5.3.0</desc>
<defs>
</defs>
<g transform="matrix(2.4581080437 0 0 2.4581080437 166.7588773649 320.0000025019)" id="TfNs-VJw7KGOB-L62jJc9"  >
<path style="stroke: rgb(145,32,138); stroke-width: 0; stroke-dasharray: none; stroke-linecap: butt; stroke-dashoffset: 0; stroke-linejoin: miter; stroke-miterlimit: 4; fill: rgb(133,223,178); fill-rule: nonzero; opacity: 1;"  transform=" translate(0, 0)" d="M 0 -52.24138 C 28.83724 -52.24138 52.24138 -28.837239999999998 52.24138 0 C 52.24138 28.83724 28.837239999999998 52.24138 0 52.24138 C -28.83724 52.24138 -52.24138 28.837239999999998 -52.24138 0 C -52.24138 -28.83724 -28.837239999999998 -52.24138 0 -52.24138 z" stroke-linecap="round" />
</g>
<g transform="matrix(2.4581080437 0 0 2.4581080437 329.1762641196 320)" id="_tCKBUWPJySq5RSiy4n-g"  >
<path style="stroke: rgb(145,32,138); stroke-width: 0; stroke-dasharray: none; stroke-linecap: butt; stroke-dashoffset: 0; stroke-linejoin: miter; stroke-miterlimit: 4; fill: rgb(255,148,168); fill-rule: nonzero; opacity: 1;"  transform=" translate(0, 0)" d="M 0 -52.24138 C 28.83724 -52.24138 52.24138 -28.837239999999998 52.24138 0 C 52.24138 28.83724 28.837239999999998 52.24138 0 52.24138 C -28.83724 52.24138 -52.24138 28.837239999999998 -52.24138 0 C -52.24138 -28.83724 -28.837239999999998 -52.24138 0 -52.24138 z" stroke-linecap="round" />
</g>
<g transform="matrix(2.4581080436 0 0 2.4581080436 473.2411201331 320)" id="bfHazVryfN5TTPC07fVqV"  >
<path style="stroke: rgb(145,32,138); stroke-width: 0; stroke-dasharray: none; stroke-linecap: butt; stroke-dashoffset: 0; stroke-linejoin: miter; stroke-miterlimit: 4; fill: rgb(164,224,217); fill-rule: nonzero; opacity: 1;"  transform=" translate(0, 0)" d="M 0 -52.24138 C 28.83724 -52.24138 52.24138 -28.837239999999998 52.24138 0 C 52.24138 28.83724 28.837239999999998 52.24138 0 52.24138 C -28.83724 52.24138 -52.24138 28.837239999999998 -52.24138 0 C -52.24138 -28.83724 -28.837239999999998 -52.24138 0 -52.24138 z" stroke-linecap="round" />
</g>
</svg>